<?xml version="1.0" encoding="UTF-8" standalone="no"?>
<!DOCTYPE svg PUBLIC "-//W3C//DTD SVG 1.1//EN" "http://www.w3.org/Graphics/SVG/1.1/DTD/svg11.dtd">
<svg width="100%" height="100%" viewBox="0 0 1365 494" version="1.1" xmlns="http://www.w3.org/2000/svg" xmlns:xlink="http://www.w3.org/1999/xlink" xml:space="preserve" xmlns:serif="http://www.serif.com/" style="fill-rule:evenodd;clip-rule:evenodd;stroke-linejoin:round;stroke-miterlimit:2;">
    <g transform="matrix(4.16667,0,0,4.16667,0,0)">
        <g id="Layer-1" serif:id="Layer 1">
            <g transform="matrix(1,0,0,1,50.9551,52.3871)">
                <path d="M0,7.987L-1.79,-5.442C-2.066,-7.85 -2.411,-11.224 -2.618,-13.979L-2.754,-13.979C-3.995,-11.224 -5.167,-8.333 -6.542,-5.509L-13.496,7.987L0,7.987ZM-15.563,12.531L-22.93,27.2L-28.991,27.2L-4.958,-19.213L1.789,-19.213L8.194,27.2L2.341,27.2L0.481,12.531L-15.563,12.531Z" style="fill:white;fill-rule:nonzero;"/>
            </g>
            <g transform="matrix(1,0,0,1,65.3423,45.5011)">
                <path d="M0,34.083L4.063,12.599C4.89,8.262 5.44,3.856 5.785,0.755L10.81,0.755C10.535,3.099 10.258,5.438 9.916,7.986L10.123,7.986C12.256,3.443 15.838,0 20.315,0C20.796,0 21.485,0.069 21.897,0.136L20.796,5.785C20.451,5.714 19.9,5.644 19.28,5.644C14.323,5.644 9.916,11.636 8.47,19.415L5.716,34.083L0,34.083Z" style="fill:white;fill-rule:nonzero;"/>
            </g>
            <g transform="matrix(1,0,0,1,96.0503,79.5844)">
                <path d="M0,-33.328L2.892,-14.32C3.374,-10.534 3.787,-7.987 3.923,-6.128L4.132,-6.128C4.821,-7.917 5.714,-10.121 7.644,-13.911L17.834,-33.328L24.1,-33.328L5.579,0L-0.068,0L-5.854,-33.328L0,-33.328Z" style="fill:white;fill-rule:nonzero;"/>
            </g>
            <g transform="matrix(1,0,0,1,152.443,80.3424)">
                <path d="M0,-34.086L-4.476,-10.467C-5.164,-6.748 -5.646,-3.512 -5.99,-0.758L-11.156,-0.758L-10.261,-7.024L-10.398,-7.024C-13.36,-2.683 -17.767,0 -22.174,0C-26.442,0 -30.918,-2.064 -30.918,-9.641C-30.918,-11.223 -30.71,-13.016 -30.298,-15.219L-26.718,-34.086L-21.002,-34.086L-24.514,-15.493C-24.927,-13.632 -25.134,-12.051 -25.134,-10.602C-25.134,-7.161 -23.688,-4.819 -19.762,-4.819C-15.63,-4.819 -10.329,-9.641 -8.952,-17.008L-5.714,-34.086L0,-34.086Z" style="fill:white;fill-rule:nonzero;"/>
            </g>
            <g transform="matrix(1,0,0,1,171.101,80.3423)">
                <path d="M0,-43.036L-1.725,-34.084L6.264,-34.084L5.371,-29.608L-2.617,-29.608L-5.717,-13.426C-6.061,-11.568 -6.337,-9.845 -6.337,-8.054C-6.337,-6.06 -5.373,-4.886 -3.168,-4.886C-2.205,-4.886 -1.24,-4.957 -0.482,-5.094L-0.76,-0.617C-1.793,-0.207 -3.512,0 -5.166,0C-10.262,0 -12.189,-3.097 -12.189,-6.473C-12.189,-8.401 -11.982,-10.328 -11.5,-12.738L-8.196,-29.608L-13.016,-29.608L-12.119,-34.084L-7.37,-34.084L-5.924,-41.59L0,-43.036Z" style="fill:white;fill-rule:nonzero;"/>
            </g>
            <g transform="matrix(1,0,0,1,188.931,77.2966)">
                <path d="M0,-36.066C-2.477,-36.066 -4.197,-37.856 -4.131,-40.335C-4.131,-43.228 -1.924,-45.224 0.691,-45.224C3.168,-45.224 4.959,-43.434 4.959,-40.886C4.891,-37.924 2.688,-36.066 0,-36.066M18.248,-25.048L15.562,-11.484C15.285,-9.899 15.012,-8.177 15.012,-6.732C15.012,-4.942 15.836,-3.77 17.975,-3.77C18.934,-3.77 19.898,-3.77 20.727,-3.91L19.971,2.358C18.799,2.77 16.664,3.046 14.734,3.046C9.227,3.046 6.748,0.016 6.748,-3.84C6.748,-5.767 6.953,-7.626 7.506,-10.107L10.398,-25.048L5.854,-25.048L7.023,-31.243L11.568,-31.243L12.945,-38.476L21.139,-40.472L19.42,-31.243L24.1,-31.243L24.1,-55.329L-9.848,-55.329L-9.848,-7.9L-5.441,-31.243L2.619,-31.243L-3.787,2.288L-9.848,2.288L-9.848,19.263L24.1,19.263L24.1,-25.048L18.248,-25.048Z" style="fill:rgb(226,4,140);fill-rule:nonzero;"/>
            </g>
            <g transform="matrix(1,0,0,1,242.224,75.3175)">
                <path d="M0,-24.791C-0.826,-24.997 -2.064,-25.271 -3.994,-25.271C-12.6,-25.271 -19.623,-16.253 -19.689,-7.024C-19.689,-3.308 -18.387,0.342 -13.976,0.342C-9.226,0.342 -3.578,-5.854 -1.928,-14.738L0,-24.791ZM-3.717,4.267C-3.717,2.271 -3.375,-0.897 -2.959,-4.34L-3.098,-4.34C-6.748,2.543 -11.291,5.025 -16.043,5.025C-21.898,5.025 -25.613,0.342 -25.613,-5.993C-25.613,-17.56 -17.078,-29.816 -2.545,-29.816C0.621,-29.816 4.133,-29.266 6.406,-28.509L3.033,-11.155C1.93,-5.374 1.445,0.551 1.584,4.267L-3.717,4.267Z" style="fill:white;fill-rule:nonzero;"/>
            </g>
            <g transform="matrix(1,0,0,1,252.343,45.5011)">
                <path d="M0,34.083L4.06,12.599C4.889,8.262 5.441,3.856 5.783,0.755L10.813,0.755C10.533,3.099 10.262,5.438 9.916,7.986L10.123,7.986C12.258,3.443 15.838,0 20.314,0C20.795,0 21.482,0.069 21.898,0.136L20.795,5.785C20.451,5.714 19.896,5.644 19.281,5.644C14.324,5.644 9.916,11.636 8.467,19.415L5.713,34.083L0,34.083Z" style="fill:white;fill-rule:nonzero;"/>
            </g>
            <g transform="matrix(1,0,0,1,274.308,30.6951)">
                <path d="M0,48.889L9.225,0L14.94,0L9.09,30.644L9.225,30.644C10.262,29.472 11.498,28.231 12.326,27.268L24.102,15.561L31.123,15.561L16.596,29.267L26.582,48.889L20.244,48.889L12.258,32.434L8.055,36.221L5.648,48.889L0,48.889Z" style="fill:white;fill-rule:nonzero;"/>
            </g>
        </g>
    </g>
</svg>
