<svg width="401" height="95" viewBox="0 0 401 95" fill="none" xmlns="http://www.w3.org/2000/svg">
<path d="M0.783997 46.104V32.92H5.52C8.848 32.92 11.2373 32.2374 12.688 30.872C14.1387 29.4214 14.864 27.416 14.864 24.856V23.192H1.808V1.81602H30.224V25.752C30.224 32.2374 28.3467 37.272 24.592 40.856C20.9227 44.3547 16.0587 46.104 10 46.104H0.783997Z" fill="#4ADE80"/>
<path d="M41.864 95V73.88L81.416 47C83.464 45.464 85.2987 44.056 86.92 42.776C88.5413 41.4107 89.7787 40.0454 90.632 38.68C91.5707 37.2294 92.04 35.736 92.04 34.2C92.04 33.8587 92.04 33.3894 92.04 32.792C92.04 32.1094 92.04 31.8107 92.04 31.896C92.04 29.08 91.016 27.032 88.968 25.752C86.92 24.3867 84.3173 23.704 81.16 23.704C77.32 23.704 74.504 24.6427 72.712 26.52C71.0053 28.3974 70.1093 30.9147 70.024 34.072H40.456C40.3707 26.392 42.0773 20.0774 45.576 15.128C49.16 10.0934 54.152 6.38135 60.552 3.99202C67.0373 1.60269 74.504 0.40802 82.952 0.40802C88.9253 0.40802 94.344 1.09069 99.208 2.45602C104.072 3.82135 108.253 5.82669 111.752 8.47202C115.336 11.1174 118.067 14.4027 119.944 18.328C121.907 22.2534 122.888 26.776 122.888 31.896C122.888 37.4427 121.779 42.2214 119.56 46.232C117.341 50.2427 114.312 53.784 110.472 56.856C106.717 59.8427 102.536 62.6587 97.928 65.304L85.128 71.704H123.656V95H41.864Z" fill="#4ADE80"/>
<path d="M131.864 95V73.88L171.416 47C173.464 45.464 175.299 44.056 176.92 42.776C178.541 41.4107 179.779 40.0454 180.632 38.68C181.571 37.2294 182.04 35.736 182.04 34.2C182.04 33.8587 182.04 33.3894 182.04 32.792C182.04 32.1094 182.04 31.8107 182.04 31.896C182.04 29.08 181.016 27.032 178.968 25.752C176.92 24.3867 174.317 23.704 171.16 23.704C167.32 23.704 164.504 24.6427 162.712 26.52C161.005 28.3974 160.109 30.9147 160.024 34.072H130.456C130.371 26.392 132.077 20.0774 135.576 15.128C139.16 10.0934 144.152 6.38135 150.552 3.99202C157.037 1.60269 164.504 0.40802 172.952 0.40802C178.925 0.40802 184.344 1.09069 189.208 2.45602C194.072 3.82135 198.253 5.82669 201.752 8.47202C205.336 11.1174 208.067 14.4027 209.944 18.328C211.907 22.2534 212.888 26.776 212.888 31.896C212.888 37.4427 211.779 42.2214 209.56 46.232C207.341 50.2427 204.312 53.784 200.472 56.856C196.717 59.8427 192.536 62.6587 187.928 65.304L175.128 71.704H213.656V95H131.864Z" fill="#4ADE80"/>
<path d="M238.69 28.34C236.809 28.34 235.199 27.9547 233.862 27.184C232.525 26.3907 231.505 25.28 230.802 23.852C230.122 22.424 229.782 20.7693 229.782 18.888V18.582C229.782 17.0633 229.997 15.7147 230.428 14.536C230.881 13.3573 231.516 12.3713 232.332 11.578C233.148 10.762 234.123 10.15 235.256 9.74199C236.389 9.33399 237.647 9.12999 239.03 9.12999C240.435 9.12999 241.705 9.35665 242.838 9.80999C243.971 10.2633 244.742 10.864 245.15 11.612H245.49L245.83 9.46999H253.106V28H245.456L245.49 25.824H245.15C244.674 26.572 243.835 27.184 242.634 27.66C241.455 28.1133 240.141 28.34 238.69 28.34ZM241.546 22.798C242.747 22.798 243.665 22.5033 244.3 21.914C244.957 21.302 245.286 20.4747 245.286 19.432V18.004C245.286 17.3013 245.139 16.7007 244.844 16.202C244.572 15.7033 244.153 15.3293 243.586 15.08C243.042 14.808 242.362 14.672 241.546 14.672C240.798 14.672 240.152 14.7853 239.608 15.012C239.064 15.2387 238.645 15.59 238.35 16.066C238.055 16.542 237.908 17.1653 237.908 17.936V19.5C237.908 20.2707 238.055 20.9053 238.35 21.404C238.645 21.88 239.064 22.2313 239.608 22.458C240.152 22.6847 240.798 22.798 241.546 22.798Z" fill="#BBF7D0"/>
<path d="M264.555 28.34C262.674 28.34 261.065 27.9547 259.727 27.184C258.39 26.3907 257.37 25.28 256.667 23.852C255.987 22.424 255.647 20.7693 255.647 18.888V18.582C255.647 17.0633 255.863 15.7147 256.293 14.536C256.747 13.3573 257.381 12.3713 258.197 11.578C259.013 10.762 259.988 10.15 261.121 9.74199C262.255 9.33399 263.513 9.12999 264.895 9.12999C266.301 9.12999 267.57 9.35665 268.703 9.80999C269.837 10.2633 270.607 10.864 271.015 11.612H271.355L271.695 9.46999H278.971V28H271.321L271.355 25.824H271.015C270.539 26.572 269.701 27.184 268.499 27.66C267.321 28.1133 266.006 28.34 264.555 28.34ZM267.411 22.798C268.613 22.798 269.531 22.5033 270.165 21.914C270.823 21.302 271.151 20.4747 271.151 19.432V18.004C271.151 17.3013 271.004 16.7007 270.709 16.202C270.437 15.7033 270.018 15.3293 269.451 15.08C268.907 14.808 268.227 14.672 267.411 14.672C266.663 14.672 266.017 14.7853 265.473 15.012C264.929 15.2387 264.51 15.59 264.215 16.066C263.921 16.542 263.773 17.1653 263.773 17.936V19.5C263.773 20.2707 263.921 20.9053 264.215 21.404C264.51 21.88 264.929 22.2313 265.473 22.458C266.017 22.6847 266.663 22.798 267.411 22.798Z" fill="#BBF7D0"/>
<path d="M291.984 28.34C289.876 28.34 288.018 28.1133 286.408 27.66C284.822 27.184 283.586 26.4813 282.702 25.552C281.841 24.6227 281.422 23.478 281.444 22.118H289.026C289.094 22.7753 289.468 23.206 290.148 23.41C290.828 23.614 291.622 23.716 292.528 23.716C293.322 23.716 293.9 23.6027 294.262 23.376C294.648 23.1493 294.84 22.8887 294.84 22.594C294.84 22.2993 294.75 22.084 294.568 21.948C294.387 21.7893 294.104 21.676 293.718 21.608C293.356 21.5173 292.891 21.4493 292.324 21.404C291.78 21.336 291.123 21.268 290.352 21.2C288.856 21.064 287.587 20.8487 286.544 20.554C285.502 20.2593 284.64 19.8853 283.96 19.432C283.303 18.956 282.816 18.4007 282.498 17.766C282.204 17.1087 282.056 16.3607 282.056 15.522C282.056 14.026 282.476 12.8133 283.314 11.884C284.176 10.932 285.366 10.2407 286.884 9.80999C288.403 9.35665 290.16 9.12999 292.154 9.12999C294.058 9.12999 295.747 9.35665 297.22 9.80999C298.694 10.2407 299.861 10.898 300.722 11.782C301.606 12.6433 302.071 13.7087 302.116 14.978H294.534C294.557 14.7287 294.466 14.5133 294.262 14.332C294.058 14.128 293.764 13.9693 293.378 13.856C292.993 13.72 292.528 13.652 291.984 13.652C291.259 13.652 290.692 13.754 290.284 13.958C289.899 14.162 289.706 14.434 289.706 14.774C289.706 15.046 289.797 15.25 289.978 15.386C290.182 15.522 290.579 15.6353 291.168 15.726C291.78 15.8167 292.71 15.9187 293.956 16.032C295.022 16.1227 296.064 16.2587 297.084 16.44C298.127 16.5987 299.068 16.8707 299.906 17.256C300.745 17.6413 301.414 18.2193 301.912 18.99C302.411 19.7607 302.66 20.792 302.66 22.084C302.66 23.3987 302.264 24.532 301.47 25.484C300.7 26.4133 299.521 27.1273 297.934 27.626C296.37 28.102 294.387 28.34 291.984 28.34Z" fill="#BBF7D0"/>
<path d="M311.175 28C309.906 28 308.875 27.66 308.081 26.98C307.311 26.3 306.925 25.2687 306.925 23.886V12.394H314.575V22.662H318.723V28H311.175ZM303.287 14.978V9.46999H306.925V3.85999H314.575V9.46999H318.689V14.978H303.287Z" fill="#BBF7D0"/>
<path d="M329.335 28.34C327.453 28.34 325.844 27.9547 324.507 27.184C323.169 26.3907 322.149 25.28 321.447 23.852C320.767 22.424 320.427 20.7693 320.427 18.888V18.582C320.427 17.0633 320.642 15.7147 321.073 14.536C321.526 13.3573 322.161 12.3713 322.977 11.578C323.793 10.762 324.767 10.15 325.901 9.74199C327.034 9.33399 328.292 9.12999 329.675 9.12999C331.08 9.12999 332.349 9.35665 333.483 9.80999C334.616 10.2633 335.387 10.864 335.795 11.612H336.135L336.475 9.46999H343.751V28H336.101L336.135 25.824H335.795C335.319 26.572 334.48 27.184 333.279 27.66C332.1 28.1133 330.785 28.34 329.335 28.34ZM332.191 22.798C333.392 22.798 334.31 22.5033 334.945 21.914C335.602 21.302 335.931 20.4747 335.931 19.432V18.004C335.931 17.3013 335.783 16.7007 335.489 16.202C335.217 15.7033 334.797 15.3293 334.231 15.08C333.687 14.808 333.007 14.672 332.191 14.672C331.443 14.672 330.797 14.7853 330.253 15.012C329.709 15.2387 329.289 15.59 328.995 16.066C328.7 16.542 328.553 17.1653 328.553 17.936V19.5C328.553 20.2707 328.7 20.9053 328.995 21.404C329.289 21.88 329.709 22.2313 330.253 22.458C330.797 22.6847 331.443 22.798 332.191 22.798Z" fill="#BBF7D0"/>
<path d="M230.768 61V42.47H237.908L238.418 45.496H238.86C239.449 44.3627 240.322 43.524 241.478 42.98C242.657 42.4133 244.062 42.13 245.694 42.13C247.326 42.13 248.709 42.47 249.842 43.15C250.975 43.8073 251.803 44.646 252.324 45.666H252.732C253.321 44.51 254.228 43.6373 255.452 43.048C256.699 42.436 258.161 42.13 259.838 42.13C261.402 42.13 262.728 42.4247 263.816 43.014C264.927 43.5807 265.765 44.3853 266.332 45.428C266.921 46.448 267.216 47.638 267.216 48.998V61H259.464V51.004C259.464 50.3693 259.351 49.7913 259.124 49.27C258.92 48.7487 258.591 48.3407 258.138 48.046C257.685 47.7287 257.073 47.57 256.302 47.57C255.622 47.57 255.021 47.6833 254.5 47.91C253.979 48.1367 253.571 48.4993 253.276 48.998C252.981 49.4967 252.834 50.1653 252.834 51.004V61H245.116V51.004C245.116 50.3693 245.003 49.8027 244.776 49.304C244.572 48.7827 244.243 48.3633 243.79 48.046C243.337 47.7287 242.736 47.57 241.988 47.57C241.285 47.57 240.662 47.6833 240.118 47.91C239.597 48.1367 239.177 48.4993 238.86 48.998C238.565 49.4967 238.418 50.1653 238.418 51.004V61H230.768Z" fill="#BBF7D0"/>
<path d="M278.467 61.34C276.586 61.34 274.977 60.9546 273.639 60.184C272.302 59.3906 271.282 58.28 270.579 56.852C269.899 55.424 269.559 53.7693 269.559 51.888V51.582C269.559 50.0633 269.775 48.7147 270.205 47.536C270.659 46.3573 271.293 45.3713 272.109 44.578C272.925 43.762 273.9 43.15 275.033 42.742C276.167 42.334 277.425 42.13 278.807 42.13C280.213 42.13 281.482 42.3566 282.615 42.81C283.749 43.2633 284.519 43.864 284.927 44.612H285.267L285.607 42.47H292.883V61H285.233L285.267 58.824H284.927C284.451 59.572 283.613 60.184 282.411 60.66C281.233 61.1133 279.918 61.34 278.467 61.34ZM281.323 55.798C282.525 55.798 283.443 55.5033 284.077 54.914C284.735 54.302 285.063 53.4747 285.063 52.432V51.004C285.063 50.3013 284.916 49.7007 284.621 49.202C284.349 48.7033 283.93 48.3293 283.363 48.08C282.819 47.808 282.139 47.672 281.323 47.672C280.575 47.672 279.929 47.7853 279.385 48.012C278.841 48.2387 278.422 48.59 278.127 49.066C277.833 49.542 277.685 50.1653 277.685 50.936V52.5C277.685 53.2707 277.833 53.9053 278.127 54.404C278.422 54.88 278.841 55.2313 279.385 55.458C279.929 55.6847 280.575 55.798 281.323 55.798ZM274.285 40.566V36.248H280.915V40.566H274.285ZM282.105 40.566V36.248H288.735V40.566H282.105Z" fill="#BBF7D0"/>
<path d="M296.411 61V42.47H303.551L304.061 45.088H304.537C305.081 44.204 305.942 43.49 307.121 42.946C308.299 42.402 309.693 42.13 311.303 42.13C313.003 42.13 314.408 42.47 315.519 43.15C316.629 43.8073 317.457 44.714 318.001 45.87C318.545 47.026 318.817 48.3633 318.817 49.882V61H311.167V50.766C311.167 49.95 311.019 49.3153 310.725 48.862C310.453 48.386 310.067 48.0573 309.569 47.876C309.07 47.672 308.481 47.57 307.801 47.57C306.962 47.57 306.259 47.7173 305.693 48.012C305.149 48.3067 304.741 48.7147 304.469 49.236C304.197 49.7347 304.061 50.3353 304.061 51.038V61H296.411Z" fill="#BBF7D0"/>
<path d="M331.765 67.086C329.657 67.086 327.832 66.8366 326.291 66.338C324.772 65.8393 323.582 65.1253 322.721 64.196C321.86 63.2667 321.372 62.1447 321.259 60.83H328.773C328.954 61.2607 329.374 61.5553 330.031 61.714C330.688 61.8727 331.402 61.952 332.173 61.952C333.51 61.952 334.542 61.7253 335.267 61.272C335.992 60.8187 336.355 60.0707 336.355 59.028V57.158H336.083C335.584 57.8607 334.757 58.4273 333.601 58.858C332.445 59.2887 331.153 59.504 329.725 59.504C327.821 59.504 326.246 59.1527 324.999 58.45C323.752 57.7247 322.823 56.7273 322.211 55.458C321.599 54.166 321.293 52.67 321.293 50.97V50.766C321.293 48.9073 321.667 47.3433 322.415 46.074C323.163 44.782 324.194 43.8073 325.509 43.15C326.824 42.47 328.342 42.13 330.065 42.13C331.538 42.13 332.796 42.3227 333.839 42.708C334.882 43.0933 335.675 43.6713 336.219 44.442H336.525L336.865 42.47H344.005V58.416C344.005 60.5013 343.495 62.1787 342.475 63.448C341.478 64.7173 340.061 65.6353 338.225 66.202C336.412 66.7913 334.258 67.086 331.765 67.086ZM332.921 54.302C334.054 54.302 334.904 54.0527 335.471 53.554C336.038 53.0327 336.321 52.3753 336.321 51.582V49.984C336.321 49.372 336.174 48.8733 335.879 48.488C335.584 48.08 335.176 47.7853 334.655 47.604C334.156 47.4 333.578 47.298 332.921 47.298C332.196 47.298 331.584 47.4113 331.085 47.638C330.586 47.8647 330.212 48.182 329.963 48.59C329.714 48.9753 329.589 49.44 329.589 49.984V51.582C329.589 52.2167 329.736 52.738 330.031 53.146C330.326 53.554 330.722 53.8487 331.221 54.03C331.72 54.2113 332.286 54.302 332.921 54.302Z" fill="#BBF7D0"/>
<path d="M354.819 61.34C353.142 61.34 351.748 61.0113 350.637 60.354C349.527 59.674 348.699 58.756 348.155 57.6C347.611 56.4213 347.339 55.084 347.339 53.588V42.47H354.989V52.67C354.989 53.486 355.125 54.132 355.397 54.608C355.692 55.0613 356.1 55.39 356.621 55.594C357.143 55.7753 357.755 55.866 358.457 55.866C359.319 55.866 360.01 55.7187 360.531 55.424C361.053 55.1293 361.438 54.7213 361.687 54.2C361.937 53.6787 362.061 53.0666 362.061 52.364V42.47H369.711V61H362.639L362.061 58.348H361.619C361.121 59.2547 360.271 59.98 359.069 60.524C357.868 61.068 356.451 61.34 354.819 61.34Z" fill="#BBF7D0"/>
<path d="M236.344 94L228.83 75.47H236.718L240.968 88.05H241.274L245.592 75.47H253.48L245.932 94H236.344Z" fill="#BBF7D0"/>
<path d="M262.264 94.34C260.383 94.34 258.774 93.9546 257.436 93.184C256.099 92.3906 255.079 91.28 254.376 89.852C253.696 88.424 253.356 86.7693 253.356 84.888V84.582C253.356 83.0633 253.572 81.7146 254.002 80.536C254.456 79.3573 255.09 78.3713 255.906 77.578C256.722 76.762 257.697 76.15 258.83 75.742C259.964 75.334 261.222 75.13 262.604 75.13C264.01 75.13 265.279 75.3566 266.412 75.81C267.546 76.2633 268.316 76.864 268.724 77.612H269.064L269.404 75.47H276.68V94H269.03L269.064 91.824H268.724C268.248 92.572 267.41 93.184 266.208 93.66C265.03 94.1133 263.715 94.34 262.264 94.34ZM265.12 88.798C266.322 88.798 267.24 88.5033 267.874 87.914C268.532 87.302 268.86 86.4747 268.86 85.432V84.004C268.86 83.3013 268.713 82.7007 268.418 82.202C268.146 81.7033 267.727 81.3293 267.16 81.08C266.616 80.808 265.936 80.672 265.12 80.672C264.372 80.672 263.726 80.7853 263.182 81.012C262.638 81.2387 262.219 81.59 261.924 82.066C261.63 82.542 261.482 83.1653 261.482 83.936V85.5C261.482 86.2707 261.63 86.9053 261.924 87.404C262.219 87.88 262.638 88.2313 263.182 88.458C263.726 88.6847 264.372 88.798 265.12 88.798Z" fill="#BBF7D0"/>
<path d="M280.207 94V69.214H287.857V94H280.207Z" fill="#BBF7D0"/>
<path d="M291.397 94V75.47H299.047V94H291.397ZM291.397 73.566V69.248H299.047V73.566H291.397Z" fill="#BBF7D0"/>
<path d="M302.586 94V75.47H309.726L310.236 78.496H310.678C311.268 77.3627 312.14 76.524 313.296 75.98C314.475 75.4133 315.88 75.13 317.512 75.13C319.144 75.13 320.527 75.47 321.66 76.15C322.794 76.8073 323.621 77.646 324.142 78.666H324.55C325.14 77.51 326.046 76.6373 327.27 76.048C328.517 75.436 329.979 75.13 331.656 75.13C333.22 75.13 334.546 75.4247 335.634 76.014C336.745 76.5807 337.584 77.3853 338.15 78.428C338.74 79.448 339.034 80.638 339.034 81.998V94H331.282V84.004C331.282 83.3693 331.169 82.7913 330.942 82.27C330.738 81.7486 330.41 81.3406 329.956 81.046C329.503 80.7286 328.891 80.57 328.12 80.57C327.44 80.57 326.84 80.6833 326.318 80.91C325.797 81.1366 325.389 81.4993 325.094 81.998C324.8 82.4967 324.652 83.1653 324.652 84.004V94H316.934V84.004C316.934 83.3693 316.821 82.8027 316.594 82.304C316.39 81.7827 316.062 81.3633 315.608 81.046C315.155 80.7286 314.554 80.57 313.806 80.57C313.104 80.57 312.48 80.6833 311.936 80.91C311.415 81.1366 310.996 81.4993 310.678 81.998C310.384 82.4967 310.236 83.1653 310.236 84.004V94H302.586Z" fill="#BBF7D0"/>
<path d="M342.364 94V75.47H350.014V94H342.364ZM342.364 73.566V69.248H350.014V73.566H342.364Z" fill="#BBF7D0"/>
<path d="M353.553 94V75.47H360.693L361.203 78.088H361.679C362.223 77.204 363.084 76.49 364.263 75.946C365.442 75.402 366.836 75.13 368.445 75.13C370.145 75.13 371.55 75.47 372.661 76.15C373.772 76.8073 374.599 77.714 375.143 78.87C375.687 80.026 375.959 81.3633 375.959 82.882V94H368.309V83.766C368.309 82.95 368.162 82.3153 367.867 81.862C367.595 81.386 367.21 81.0573 366.711 80.876C366.212 80.672 365.623 80.57 364.943 80.57C364.104 80.57 363.402 80.7173 362.835 81.012C362.291 81.3067 361.883 81.7147 361.611 82.236C361.339 82.7347 361.203 83.3353 361.203 84.038V94H353.553Z" fill="#BBF7D0"/>
<path d="M389.554 94.34C387.355 94.34 385.406 94 383.706 93.32C382.006 92.64 380.68 91.5973 379.728 90.192C378.776 88.7867 378.3 87.0073 378.3 84.854V84.582C378.3 82.4287 378.776 80.6607 379.728 79.278C380.68 77.8727 381.994 76.83 383.672 76.15C385.372 75.47 387.332 75.13 389.554 75.13C391.548 75.13 393.362 75.4586 394.994 76.116C396.626 76.7506 397.929 77.7253 398.904 79.04C399.878 80.3547 400.366 81.998 400.366 83.97V86.418H386.154C386.154 86.486 386.154 86.5767 386.154 86.69C386.154 86.8033 386.154 86.86 386.154 86.86C386.154 87.336 386.267 87.7553 386.494 88.118C386.743 88.4806 387.117 88.764 387.616 88.968C388.137 89.1493 388.783 89.24 389.554 89.24C390.46 89.24 391.197 89.1153 391.764 88.866C392.33 88.6166 392.659 88.3106 392.75 87.948H400.026C399.912 89.2173 399.414 90.3393 398.53 91.314C397.668 92.266 396.467 93.014 394.926 93.558C393.407 94.0793 391.616 94.34 389.554 94.34ZM386.188 83.392L384.964 82.304H394.008L392.784 83.392V82.236C392.784 81.4653 392.466 80.91 391.832 80.57C391.197 80.2073 390.415 80.026 389.486 80.026C388.874 80.026 388.318 80.1053 387.82 80.264C387.321 80.4227 386.924 80.6606 386.63 80.978C386.335 81.2953 386.188 81.7147 386.188 82.236V83.392Z" fill="#BBF7D0"/>
</svg>
