<svg width="1007" height="444" viewBox="0 0 1007 444" fill="none" xmlns="http://www.w3.org/2000/svg">
<path d="M856.444 327.273V284.731H927.843C932.008 284.731 935.777 283.839 939.148 282.054C942.52 280.269 945.098 277.79 946.883 274.616C948.866 271.443 949.858 267.774 949.858 263.609C949.858 259.642 948.866 256.072 946.883 252.899C945.098 249.528 942.52 246.949 939.148 245.164C935.777 243.181 932.008 242.189 927.843 242.189H866.559V201.432H929.331C933.297 201.432 936.768 200.54 939.743 198.755C942.718 196.97 945.098 194.59 946.883 191.615C948.866 188.64 949.858 185.268 949.858 181.5C949.858 177.732 948.866 174.36 946.883 171.385C945.098 168.41 942.718 166.03 939.743 164.245C936.768 162.46 933.297 161.568 929.331 161.568H856.444V119.026H937.066C948.767 119.026 959.18 121.703 968.303 127.058C977.624 132.413 984.963 139.553 990.318 148.478C995.871 157.403 998.648 167.319 998.648 178.227C998.648 186.359 996.763 194.193 992.995 201.73C989.425 209.266 984.368 215.811 977.823 221.365C982.384 224.934 986.252 229.099 989.425 233.859C992.599 238.421 994.978 243.379 996.565 248.734C998.35 253.891 999.243 259.345 999.243 265.097C999.243 276.798 996.367 287.409 990.615 296.929C985.062 306.25 977.525 313.688 968.005 319.241C958.486 324.596 947.776 327.273 935.876 327.273H856.444Z" fill="#C307F2" fill-opacity="0.1"/>
<path d="M728.116 327.273C719.588 327.273 712.051 325.488 705.507 321.918C698.962 318.15 693.904 313.192 690.334 307.044C686.764 300.697 684.979 293.755 684.979 286.219C684.979 279.476 686.665 272.931 690.037 266.584C693.607 260.237 698.267 254.982 704.019 250.817L766.493 206.192C770.46 203.416 773.435 200.143 775.418 196.375C777.6 192.408 778.691 188.342 778.691 184.177C778.691 179.417 777.6 175.451 775.418 172.278C773.435 168.906 770.559 166.328 766.791 164.543C763.221 162.559 758.858 161.568 753.701 161.568H695.094V119.026H758.461C772.146 119.026 784.046 122.001 794.161 127.951C804.474 133.702 812.407 141.536 817.96 151.453C823.712 161.171 826.588 172.079 826.588 184.177C826.588 196.077 824.109 206.688 819.15 216.01C814.39 225.133 806.556 233.264 795.648 240.404L739.719 277.889C739.322 278.087 738.826 278.583 738.231 279.376C737.835 279.971 737.636 280.666 737.636 281.459C737.636 282.649 737.934 283.541 738.529 284.136C739.322 284.533 740.413 284.731 741.801 284.731H831.645V327.273H728.116Z" fill="#C307F2" fill-opacity="0.1"/>
<path d="M577.19 330.843C561.324 330.843 547.242 327.571 534.946 321.026C522.649 314.283 513.03 305.258 506.088 293.954C499.147 282.45 495.676 269.559 495.676 255.279V190.722C495.676 176.442 499.147 163.65 506.088 152.345C513.03 140.842 522.649 131.818 534.946 125.273C547.242 118.728 561.324 115.456 577.19 115.456C592.66 115.456 606.444 118.728 618.542 125.273C630.839 131.818 640.458 140.842 647.399 152.345C654.341 163.65 657.812 176.442 657.812 190.722V255.279C657.812 269.559 654.242 282.45 647.102 293.954C640.16 305.258 630.541 314.283 618.245 321.026C606.147 327.571 592.462 330.843 577.19 330.843ZM577.19 288.004C583.14 288.004 588.495 286.715 593.255 284.136C598.213 281.36 602.18 277.591 605.155 272.831C608.13 268.071 609.617 262.716 609.617 256.767V189.235C609.617 183.285 608.13 178.029 605.155 173.467C602.18 168.707 598.213 164.939 593.255 162.163C588.495 159.386 583.14 157.998 577.19 157.998C571.042 157.998 565.389 159.386 560.233 162.163C555.275 164.741 551.308 168.41 548.333 173.17C545.358 177.93 543.871 183.285 543.871 189.235V256.767C543.871 262.716 545.358 268.071 548.333 272.831C551.308 277.591 555.275 281.36 560.233 284.136C565.389 286.715 571.042 288.004 577.19 288.004Z" fill="#C307F2" fill-opacity="0.1"/>
<path d="M364.671 327.273C356.142 327.273 348.606 325.488 342.061 321.918C335.516 318.15 330.459 313.192 326.889 307.044C323.319 300.697 321.534 293.755 321.534 286.219C321.534 279.476 323.219 272.931 326.591 266.584C330.161 260.237 334.822 254.982 340.573 250.817L403.048 206.192C407.014 203.416 409.989 200.143 411.973 196.375C414.154 192.408 415.245 188.342 415.245 184.177C415.245 179.417 414.154 175.451 411.973 172.278C409.989 168.906 407.114 166.328 403.345 164.543C399.775 162.559 395.412 161.568 390.255 161.568H331.649V119.026H395.015C408.7 119.026 420.6 122.001 430.715 127.951C441.028 133.702 448.961 141.536 454.515 151.453C460.266 161.171 463.142 172.079 463.142 184.177C463.142 196.077 460.663 206.688 455.705 216.01C450.945 225.133 443.111 233.264 432.202 240.404L376.273 277.889C375.876 278.087 375.381 278.583 374.786 279.376C374.389 279.971 374.191 280.666 374.191 281.459C374.191 282.649 374.488 283.541 375.083 284.136C375.876 284.533 376.967 284.731 378.356 284.731H468.2V327.273H364.671Z" fill="#C307F2" fill-opacity="0.1"/>
<path d="M962.725 443.966V396.459H997.281L998.224 404.399H972.323V416.243H993.051V423.792H972.323V436.027H999.233L998.322 443.966H962.725Z" fill="#97F8B9"/>
<path d="M910.575 443.966V396.459H916.562L940.673 426.786H941.064V396.459H950.045V443.966H943.765L919.946 414.584H919.556V443.966H910.575Z" fill="#97F8B9"/>
<path d="M865.617 443.966L864.966 436.027H876.843V404.399H864.966L865.617 396.459H897.83L898.481 404.399H886.474V436.027H898.481L897.83 443.966H865.617Z" fill="#97F8B9"/>
<path d="M806.114 443.966V396.459H815.973L828.891 415.007H829.314L843.045 396.459H852.091V443.966H844.444V407.653H843.891L829.672 431.308H827.947L814.086 407.653H813.63V443.966H806.114Z" fill="#97F8B9"/>
<path d="M760.439 443.966L759.789 436.027H771.698V404.399H759.789L760.439 396.459H792.653L793.304 404.399H781.329V436.027H793.304L792.653 443.966H760.439Z" fill="#97F8B9"/>
<path d="M711.219 443.966V396.459H720.818V436.027H747.142L746.231 443.966H711.219Z" fill="#97F8B9"/>
<path d="M657.638 443.966V413.998L671.467 396.459H683.278L697.107 413.998V443.966H687.541V433.326H667.172V443.966H657.638ZM667.172 426.395H687.541V417.512L677.356 403.911L667.172 417.512V426.395Z" fill="#97F8B9"/>
<path d="M620.879 443.966L607.115 420.798V396.459H616.682V417.512L626.769 436.254L636.888 417.545V396.459H646.422V420.798L632.691 443.966H620.879Z" fill="#97F8B9"/>
<path d="M513.392 443.966L505.875 434.627V396.459H515.637V431.634L519.151 436.027H532.036L535.583 431.634V396.459H545.345V434.627L537.828 443.966H513.392Z" fill="#97F8B9"/>
<path d="M467.327 443.966L453.4 426.72V413.64L467.88 396.459H492.902L493.813 405.212H472.858L462.902 416.894V423.467L472.273 435.213H482.75L488.054 429.779V424.605H475.396V417.349H495.993V433.586L486.329 443.966H467.327Z" fill="#97F8B9"/>
<path d="M404.7 443.966V396.459H410.687L434.798 426.786H435.189V396.459H444.17V443.966H437.89L414.071 414.584H413.681V443.966H404.7Z" fill="#97F8B9"/>
<path d="M354.113 443.966V413.998L367.942 396.459H379.753L393.582 413.998V443.966H384.016V433.326H363.646V443.966H354.113ZM357.757 385.722L363.191 380.483L368.56 385.722L363.191 390.96L357.757 385.722ZM363.646 426.395H384.016V417.512L373.831 403.911L363.646 417.512V426.395ZM379.33 385.722L384.732 380.483L390.133 385.722L384.732 390.96L379.33 385.722Z" fill="#97F8B9"/>
<path d="M303.623 443.966V396.459H313.189L323.048 415.072H323.471L334.339 396.459H342.864V443.966H335.218V410.419H334.665L324.024 431.308H321.909L311.595 410.419H311.139V443.966H303.623Z" fill="#97F8B9"/>
<path d="M202.35 443.966V413.998L216.179 396.459H227.991L241.819 413.998V443.966H232.253V433.326H211.884V443.966H202.35ZM211.884 426.395H232.253V417.512L222.068 403.911L211.884 417.512V426.395Z" fill="#97F8B9"/>
<path d="M164.485 443.966V404.399H146.849L147.5 396.459H191.004L191.622 404.399H174.117V443.966H164.485Z" fill="#97F8B9"/>
<path d="M103.16 443.966L102.216 435.278H123.92L126.881 431.731V429.551L102.542 413.672V406.449L111.36 396.459H136.252L137.163 405.147H116.273L113.279 408.694V410.874L137.586 426.72V433.977L128.768 443.966H103.16Z" fill="#97F8B9"/>
<path d="M50.5875 443.966V413.998L64.4165 396.459H76.228L90.057 413.998V443.966H80.4906V433.326H60.1214V443.966H50.5875ZM60.1214 426.395H80.4906V417.512L70.306 403.911L60.1214 417.512V426.395Z" fill="#97F8B9"/>
<path d="M0 443.966V413.998L13.8289 396.459H25.6405L39.4695 413.998V443.966H29.9031V433.326H9.53384V443.966H0ZM9.53384 426.395H29.9031V417.512L19.7185 403.911L9.53384 417.512V426.395Z" fill="#97F8B9"/>
<path d="M962.725 63.4831V15.9766H997.281L998.224 23.916H972.323V35.7601H993.051V43.3091H972.323V55.5436H999.233L998.322 63.4831H962.725Z" fill="#97F8B9"/>
<path d="M910.575 63.4831V15.9766H916.562L940.673 46.3026H941.064V15.9766H950.045V63.4831H943.765L919.946 34.1006H919.556V63.4831H910.575Z" fill="#97F8B9"/>
<path d="M865.617 63.4831L864.966 55.5436H876.843V23.916H864.966L865.617 15.9766H897.83L898.481 23.916H886.474V55.5436H898.481L897.83 63.4831H865.617Z" fill="#97F8B9"/>
<path d="M806.114 63.4831V15.9766H815.973L828.891 34.5236H829.314L843.045 15.9766H852.091V63.4831H844.444V27.1699H843.891L829.672 50.8255H827.947L814.086 27.1699H813.63V63.4831H806.114Z" fill="#97F8B9"/>
<path d="M760.439 63.4831L759.789 55.5436H771.698V23.916H759.789L760.439 15.9766H792.653L793.304 23.916H781.329V55.5436H793.304L792.653 63.4831H760.439Z" fill="#97F8B9"/>
<path d="M711.219 63.4831V15.9766H720.818V55.5436H747.142L746.231 63.4831H711.219Z" fill="#97F8B9"/>
<path d="M657.638 63.4831V33.5149L671.467 15.9766H683.278L697.107 33.5149V63.4831H687.541V52.8429H667.172V63.4831H657.638ZM667.172 45.9122H687.541V37.0291L677.356 23.4279L667.172 37.0291V45.9122Z" fill="#97F8B9"/>
<path d="M620.879 63.4831L607.115 40.3155V15.9766H616.682V37.0291L626.769 55.7714L636.888 37.0616V15.9766H646.422V40.3155L632.691 63.4831H620.879Z" fill="#97F8B9"/>
<path d="M513.392 63.4831L505.875 54.1445V15.9766H515.637V51.1509L519.151 55.5436H532.036L535.583 51.1509V15.9766H545.345V54.1445L537.828 63.4831H513.392Z" fill="#97F8B9"/>
<path d="M467.327 63.4831L453.4 46.2376V33.157L467.88 15.9766H492.902L493.813 24.7295H472.858L462.902 36.4109V42.9837L472.273 54.7302H482.75L488.054 49.2962V44.1225H475.396V36.8664H495.993V53.1032L486.329 63.4831H467.327Z" fill="#97F8B9"/>
<path d="M404.7 63.4831V15.9766H410.687L434.798 46.3026H435.189V15.9766H444.17V63.4831H437.89L414.071 34.1006H413.681V63.4831H404.7Z" fill="#97F8B9"/>
<path d="M354.113 63.483V33.5149L367.942 15.9765H379.753L393.582 33.5149V63.483H384.016V52.8429H363.646V63.483H354.113ZM357.757 5.23873L363.191 0L368.56 5.23873L363.191 10.4775L357.757 5.23873ZM363.646 45.9121H384.016V37.029L373.831 23.4279L363.646 37.029V45.9121ZM379.33 5.23873L384.732 0L390.133 5.23873L384.732 10.4775L379.33 5.23873Z" fill="#97F8B9"/>
<path d="M303.623 63.4831V15.9766H313.189L323.048 34.5887H323.471L334.339 15.9766H342.864V63.4831H335.218V29.9357H334.665L324.024 50.8255H321.909L311.595 29.9357H311.139V63.4831H303.623Z" fill="#97F8B9"/>
<path d="M202.35 63.4831V33.5149L216.179 15.9766H227.991L241.819 33.5149V63.4831H232.253V52.8429H211.884V63.4831H202.35ZM211.884 45.9122H232.253V37.0291L222.068 23.4279L211.884 37.0291V45.9122Z" fill="#97F8B9"/>
<path d="M164.485 63.4831V23.916H146.849L147.5 15.9766H191.004L191.622 23.916H174.117V63.4831H164.485Z" fill="#97F8B9"/>
<path d="M103.16 63.4831L102.216 54.7952H123.92L126.881 51.2485V49.0684L102.542 33.1895V25.9659L111.36 15.9766H136.252L137.163 24.6644H116.273L113.279 28.2111V30.3912L137.586 46.2376V53.4937L128.768 63.4831H103.16Z" fill="#97F8B9"/>
<path d="M50.5875 63.4831V33.5149L64.4165 15.9766H76.228L90.057 33.5149V63.4831H80.4906V52.8429H60.1214V63.4831H50.5875ZM60.1214 45.9122H80.4906V37.0291L70.306 23.4279L60.1214 37.0291V45.9122Z" fill="#97F8B9"/>
<path d="M0 63.4831V33.5149L13.8289 15.9766H25.6405L39.4695 33.5149V63.4831H29.9031V52.8429H9.53384V63.4831H0ZM9.53384 45.9122H29.9031V37.0291L19.7185 23.4279L9.53384 37.0291V45.9122Z" fill="#97F8B9"/>
<path d="M197.792 336.57V322.7H229.877V259.04L204.631 265.496V250.732L233.329 243.253H246.623V322.7H275.385V336.57H197.792Z" fill="#FF2942" fill-opacity="0.1"/>
<path d="M105.135 336.57V243.253H121.816V322.7H175.441L173.716 336.57H105.135Z" fill="#FF2942" fill-opacity="0.1"/>
<path d="M4.67975 336.57V243.253H71.663L73.3248 257.123H21.4256V283.073H63.2262V296.239H21.4256V322.7H75.4979L73.7722 336.57H4.67975Z" fill="#FF2942" fill-opacity="0.1"/>
<path d="M225.467 211.063L197.728 165.172V117.747H214.346V159.676L235.694 197.641L256.977 159.739V117.747H273.595V165.172L245.856 211.063H225.467Z" fill="#FF2942" fill-opacity="0.1"/>
<path d="M102.77 211.063V117.747H169.753L171.415 131.617H119.516V157.566H161.316V170.733H119.516V197.194H173.588L171.862 211.063H102.77Z" fill="#FF2942" fill-opacity="0.1"/>
<path d="M7.04462 211.063V117.747H23.7265V197.194H77.3515L75.6258 211.063H7.04462Z" fill="#FF2942" fill-opacity="0.1"/>
<path fill-rule="evenodd" clip-rule="evenodd" d="M856.444 331.246C852.593 331.246 849.472 328.124 849.472 324.273V281.731C849.472 277.88 852.593 274.759 856.444 274.759H927.843C930.978 274.759 933.61 274.097 935.886 272.891C938.135 271.701 939.709 270.148 940.806 268.198C940.859 268.104 940.913 268.012 940.97 267.921C942.185 265.978 942.886 263.619 942.886 260.609C942.886 257.867 942.219 255.592 940.97 253.595C940.882 253.453 940.799 253.309 940.721 253.161C939.59 251.025 938.022 249.457 935.886 248.326C935.794 248.278 935.703 248.227 935.613 248.174C933.383 246.862 930.849 246.162 927.843 246.162H866.559C862.708 246.162 859.586 243.04 859.586 239.189V198.432C859.586 194.581 862.708 191.46 866.559 191.46H929.331C932.218 191.46 934.413 190.822 936.156 189.776C938.149 188.58 939.708 187.021 940.904 185.027C940.961 184.933 941.02 184.839 941.082 184.747C942.259 182.981 942.886 180.97 942.886 178.5C942.886 176.03 942.259 174.019 941.082 172.253C941.02 172.161 940.961 172.067 940.904 171.972C939.708 169.979 938.149 168.42 936.156 167.224C934.413 166.178 932.218 165.54 929.331 165.54H856.444C852.593 165.54 849.472 162.418 849.472 158.568V116.026C849.472 112.175 852.593 109.053 856.444 109.053H937.066C949.861 109.053 961.507 111.991 971.805 118.028C982.093 123.945 990.29 131.896 996.269 141.845C1002.52 151.905 1005.62 163.089 1005.62 175.227C1005.62 184.457 1003.48 193.333 999.264 201.782C996.388 207.837 992.654 213.314 988.089 218.201C990.721 220.881 993.089 223.793 995.189 226.935C998.74 232.053 1001.42 237.618 1003.21 243.603C1005.22 249.487 1006.22 255.665 1006.22 262.096C1006.22 274.993 1003.03 286.856 996.593 297.517C990.427 307.861 982.035 316.129 971.519 322.264C971.487 322.282 971.456 322.3 971.424 322.318C960.768 328.312 948.863 331.246 935.876 331.246H856.444ZM990.615 293.929C996.367 284.409 999.243 273.798 999.243 262.096C999.243 256.345 998.35 250.891 996.565 245.734C994.978 240.379 992.598 235.421 989.425 230.859C987.55 228.047 985.433 225.442 983.073 223.045C981.439 221.385 979.689 219.825 977.823 218.364C979.638 216.824 981.339 215.208 982.926 213.515C987.059 209.104 990.415 204.176 992.995 198.73C996.763 191.193 998.648 183.359 998.648 175.227C998.648 164.319 995.871 154.403 990.318 145.478C984.963 136.553 977.625 129.413 968.303 124.058C959.18 118.703 948.767 116.026 937.066 116.026H856.444V158.568H929.331C933.297 158.568 936.768 159.46 939.743 161.245C942.718 163.03 945.098 165.41 946.883 168.385C948.866 171.36 949.858 174.732 949.858 178.5C949.858 182.268 948.866 185.64 946.883 188.615C945.098 191.59 942.718 193.97 939.743 195.755C936.768 197.54 933.297 198.432 929.331 198.432H866.559V239.189H927.843C932.008 239.189 935.777 240.181 939.148 242.164C942.52 243.949 945.098 246.527 946.883 249.899C948.866 253.072 949.858 256.642 949.858 260.609C949.858 264.774 948.866 268.443 946.883 271.616C945.098 274.79 942.52 277.269 939.148 279.054C935.777 280.839 932.008 281.731 927.843 281.731H856.444V324.273H935.876C947.776 324.273 958.486 321.596 968.005 316.241C977.525 310.688 985.062 303.25 990.615 293.929Z" fill="#D240F7"/>
<path fill-rule="evenodd" clip-rule="evenodd" d="M702.168 325.04C702.121 325.014 702.074 324.988 702.028 324.961C694.493 320.623 688.526 314.815 684.305 307.545L684.257 307.462C680.079 300.034 678.007 291.909 678.007 283.219C678.007 275.26 680.009 267.598 683.879 260.313C683.905 260.263 683.932 260.214 683.96 260.166C688.011 252.964 693.341 246.94 699.93 242.169L699.966 242.143L762.441 197.518L762.495 197.48C765.677 195.252 767.849 192.785 769.248 190.127C769.268 190.089 769.288 190.052 769.309 190.014C770.975 186.985 771.718 184.067 771.718 181.177C771.718 177.492 770.884 174.99 769.673 173.228C769.58 173.092 769.492 172.954 769.408 172.813C768.181 170.726 766.399 169.072 763.806 167.844C763.67 167.78 763.536 167.711 763.405 167.638C761.108 166.362 757.978 165.54 753.701 165.54H695.094C691.243 165.54 688.122 162.418 688.122 158.568V116.026C688.122 112.175 691.243 109.053 695.094 109.053H758.461C773.15 109.053 786.289 112.249 797.627 118.9C808.962 125.237 817.809 133.943 824.003 144.973C830.408 155.825 833.56 167.951 833.56 181.177C833.56 194.062 830.87 205.813 825.319 216.259C819.883 226.666 811.118 235.606 799.499 243.217C799.488 243.224 799.477 243.231 799.467 243.238L752.437 274.759H831.645C835.496 274.759 838.618 277.88 838.618 281.731V324.273C838.618 328.124 835.496 331.246 831.645 331.246H728.116C718.591 331.246 709.876 329.244 702.168 325.04ZM738.231 276.376C738.826 275.583 739.322 275.087 739.719 274.889L795.648 237.404C806.556 230.264 814.39 222.133 819.15 213.009C824.109 203.688 826.588 193.077 826.588 181.177C826.588 169.079 823.712 158.171 817.96 148.453C812.407 138.536 804.474 130.702 794.161 124.95C784.046 119.001 772.146 116.026 758.461 116.026H695.094V158.568H753.701C758.858 158.568 763.221 159.559 766.791 161.543C770.559 163.328 773.435 165.906 775.418 169.277C777.6 172.451 778.691 176.417 778.691 181.177C778.691 185.342 777.6 189.408 775.418 193.375C773.435 197.143 770.46 200.415 766.493 203.192L704.019 247.817C698.268 251.982 693.607 257.237 690.037 263.584C686.665 269.931 684.979 276.475 684.979 283.219C684.979 290.755 686.764 297.697 690.334 304.044C693.904 310.192 698.962 315.15 705.507 318.918C712.052 322.488 719.588 324.273 728.116 324.273H831.645V281.731H741.801C740.413 281.731 739.322 281.533 738.529 281.136C737.934 280.541 737.636 279.649 737.636 278.459C737.636 277.665 737.835 276.971 738.231 276.376Z" fill="#D240F7"/>
<path fill-rule="evenodd" clip-rule="evenodd" d="M531.67 324.181L531.593 324.139C518.297 316.848 507.759 306.999 500.147 294.602L500.119 294.556C492.48 281.897 488.704 267.745 488.704 252.279V187.722C488.704 172.266 492.475 158.2 500.133 145.719C507.749 133.108 518.312 123.228 531.67 116.118C545.108 108.965 560.342 105.483 577.19 105.483C593.664 105.483 608.606 108.975 621.84 116.129C635.186 123.238 645.742 133.113 653.354 145.717C661.013 158.198 664.784 172.265 664.784 187.722V252.279C664.784 267.779 660.892 281.954 653.033 294.62C645.422 307.009 634.887 316.851 621.598 324.139L621.563 324.158C608.337 331.313 593.49 334.816 577.19 334.816C560.342 334.816 545.108 331.333 531.67 324.181ZM647.102 290.954C654.242 279.45 657.812 266.559 657.812 252.279V187.722C657.812 173.442 654.341 160.65 647.4 149.345C640.458 137.842 630.839 128.818 618.542 122.273C606.444 115.728 592.66 112.455 577.19 112.455C561.324 112.455 547.242 115.728 534.946 122.273C522.649 128.818 513.03 137.842 506.089 149.345C499.147 160.65 495.676 173.442 495.676 187.722V252.279C495.676 266.559 499.147 279.45 506.089 290.954C513.03 302.258 522.649 311.282 534.946 318.026C547.242 324.571 561.324 327.843 577.19 327.843C592.462 327.843 606.147 324.571 618.245 318.026C630.541 311.282 640.16 302.258 647.102 290.954ZM599.315 174.276C599.29 174.239 599.266 174.201 599.242 174.163C596.897 170.41 593.797 167.457 589.848 165.246C589.813 165.226 589.777 165.206 589.742 165.185C586.133 163.08 582.007 161.97 577.19 161.97C572.137 161.97 567.628 163.1 563.539 165.302C563.524 165.31 563.509 165.318 563.493 165.326C563.479 165.333 563.464 165.341 563.45 165.349C559.602 167.35 556.564 170.157 554.246 173.865C552.006 177.45 550.843 181.51 550.843 186.235V253.766C550.843 258.492 552.006 262.552 554.246 266.136C556.563 269.844 559.617 272.77 563.498 274.972C567.584 276.987 572.112 278.031 577.19 278.031C582.079 278.031 586.259 276.986 589.891 275.029C593.819 272.82 596.905 269.875 599.242 266.136C601.482 262.552 602.645 258.492 602.645 253.766V186.235C602.645 181.507 601.483 177.6 599.315 174.276ZM560.233 281.136C555.275 278.359 551.308 274.591 548.333 269.831C545.358 265.071 543.871 259.716 543.871 253.766V186.235C543.871 180.285 545.358 174.93 548.333 170.17C551.308 165.41 555.275 161.741 560.233 159.162C565.39 156.386 571.042 154.998 577.19 154.998C583.14 154.998 588.495 156.386 593.255 159.162C598.213 161.939 602.18 165.707 605.155 170.467C608.13 175.029 609.617 180.285 609.617 186.235V253.766C609.617 259.716 608.13 265.071 605.155 269.831C602.18 274.591 598.213 278.359 593.255 281.136C588.495 283.714 583.14 285.004 577.19 285.004C571.042 285.004 565.39 283.714 560.233 281.136Z" fill="#D240F7"/>
<path fill-rule="evenodd" clip-rule="evenodd" d="M338.722 325.04C338.675 325.014 338.628 324.988 338.582 324.961C331.047 320.623 325.08 314.815 320.859 307.545L320.811 307.462C316.633 300.034 314.561 291.909 314.561 283.219C314.561 275.26 316.563 267.598 320.433 260.313C320.46 260.263 320.487 260.214 320.514 260.166C324.565 252.964 329.895 246.94 336.484 242.169L336.521 242.143L398.995 197.518L399.049 197.48C402.232 195.252 404.403 192.785 405.802 190.127C405.822 190.089 405.843 190.052 405.863 190.014C407.529 186.985 408.273 184.067 408.273 181.177C408.273 177.492 407.438 174.99 406.227 173.228C406.134 173.092 406.046 172.954 405.963 172.813C404.735 170.726 402.954 169.072 400.36 167.844C400.224 167.78 400.091 167.711 399.959 167.638C397.663 166.362 394.533 165.54 390.255 165.54H331.649C327.798 165.54 324.676 162.418 324.676 158.568V116.026C324.676 112.175 327.798 109.053 331.649 109.053H395.015C409.704 109.053 422.843 112.249 434.181 118.9C445.516 125.237 454.363 133.943 460.557 144.973C466.962 155.825 470.115 167.951 470.115 181.177C470.115 194.063 467.424 205.815 461.873 216.261C456.437 226.667 447.672 235.606 436.053 243.217C436.042 243.224 436.032 243.231 436.021 243.238L388.991 274.759H468.199C472.05 274.759 475.172 277.88 475.172 281.731V324.273C475.172 328.124 472.05 331.246 468.199 331.246H364.671C355.145 331.246 346.43 329.244 338.722 325.04ZM374.786 276.376C375.381 275.583 375.876 275.087 376.273 274.889L432.202 237.404C443.111 230.264 450.945 222.133 455.705 213.009C460.663 203.688 463.142 193.077 463.142 181.177C463.142 169.079 460.266 158.171 454.515 148.453C448.961 138.536 441.028 130.702 430.715 124.95C420.6 119.001 408.7 116.026 395.015 116.026H331.649V158.568H390.255C395.412 158.568 399.775 159.559 403.345 161.543C407.114 163.328 409.989 165.906 411.973 169.277C414.154 172.451 415.245 176.417 415.245 181.177C415.245 185.342 414.154 189.408 411.973 193.375C409.989 197.143 407.014 200.415 403.048 203.192L340.573 247.817C334.822 251.982 330.161 257.237 326.591 263.584C323.219 269.931 321.534 276.475 321.534 283.219C321.534 290.755 323.319 297.697 326.889 304.044C330.459 310.192 335.516 315.15 342.061 318.918C348.606 322.488 356.142 324.273 364.671 324.273H468.199V281.731H378.355C376.967 281.731 375.876 281.533 375.083 281.136C374.488 280.541 374.191 279.649 374.191 278.459C374.191 277.665 374.389 276.971 374.786 276.376Z" fill="#D240F7"/>
<path fill-rule="evenodd" clip-rule="evenodd" d="M197.792 333.57H275.385V319.7H246.623V240.254H233.329L204.631 247.732V262.496L229.877 256.041V319.7H197.792V333.57ZM225.229 315.052H193.144V338.218H280.034V315.052H251.272V235.605H232.733L199.982 244.139V268.483L225.229 262.027V315.052Z" fill="#FF2942"/>
<path fill-rule="evenodd" clip-rule="evenodd" d="M105.135 333.57H173.716L175.441 319.7H121.816V240.254H105.135V333.57ZM126.465 315.052V235.605H100.486V338.218H177.822L180.704 315.052H126.465Z" fill="#FF2942"/>
<path fill-rule="evenodd" clip-rule="evenodd" d="M4.67976 333.57H73.7722L75.4979 319.7H21.4256V293.239H63.2262V280.073H21.4256V254.123H73.3248L71.663 240.254H4.67976V333.57ZM26.074 258.772H78.5634L75.7877 235.605H0.0313721V338.218H77.8781L80.7605 315.052H26.074V297.888H67.8746V275.424H26.074V258.772Z" fill="#FF2942"/>
<path fill-rule="evenodd" clip-rule="evenodd" d="M222.845 212.712L193.079 163.468V110.099H218.994V155.458L235.691 185.152L252.329 155.524V110.099H278.244V163.468L248.478 212.712H222.845ZM256.977 156.739L235.694 194.641L214.346 156.675V114.747H197.728V162.172L225.467 208.063H245.856L273.595 162.172V114.747H256.977V156.739Z" fill="#FF2942"/>
<path fill-rule="evenodd" clip-rule="evenodd" d="M98.1214 212.712V110.099H173.878L176.653 133.265H124.164V149.918H165.965V172.381H124.164V189.545H178.851L175.968 212.712H98.1214ZM119.516 194.194V167.733H161.316V154.566H119.516V128.617H171.415L169.753 114.747H102.77V208.063H171.862L173.588 194.194H119.516Z" fill="#FF2942"/>
<path fill-rule="evenodd" clip-rule="evenodd" d="M2.39624 212.712V110.099H28.3749V189.545H82.6141L79.7316 212.712H2.39624ZM23.7265 194.194V114.747H7.04463V208.063H75.6258L77.3515 194.194H23.7265Z" fill="#FF2942"/>
</svg>
