<svg width="214" height="95" viewBox="0 0 214 95" fill="none" xmlns="http://www.w3.org/2000/svg">
<path d="M0.783997 46.104V32.92H5.52C8.848 32.92 11.2373 32.2374 12.688 30.872C14.1387 29.4214 14.864 27.416 14.864 24.856V23.192H1.808V1.81602H30.224V25.752C30.224 32.2374 28.3467 37.272 24.592 40.856C20.9227 44.3547 16.0587 46.104 10 46.104H0.783997Z" fill="#4ADE80"/>
<path d="M41.864 95V73.88L81.416 47C83.464 45.464 85.2987 44.056 86.92 42.776C88.5413 41.4107 89.7787 40.0454 90.632 38.68C91.5707 37.2294 92.04 35.736 92.04 34.2C92.04 33.8587 92.04 33.3894 92.04 32.792C92.04 32.1094 92.04 31.8107 92.04 31.896C92.04 29.08 91.016 27.032 88.968 25.752C86.92 24.3867 84.3173 23.704 81.16 23.704C77.32 23.704 74.504 24.6427 72.712 26.52C71.0053 28.3974 70.1093 30.9147 70.024 34.072H40.456C40.3707 26.392 42.0773 20.0774 45.576 15.128C49.16 10.0934 54.152 6.38135 60.552 3.99202C67.0373 1.60269 74.504 0.40802 82.952 0.40802C88.9253 0.40802 94.344 1.09069 99.208 2.45602C104.072 3.82135 108.253 5.82669 111.752 8.47202C115.336 11.1174 118.067 14.4027 119.944 18.328C121.907 22.2534 122.888 26.776 122.888 31.896C122.888 37.4427 121.779 42.2214 119.56 46.232C117.341 50.2427 114.312 53.784 110.472 56.856C106.717 59.8427 102.536 62.6587 97.928 65.304L85.128 71.704H123.656V95H41.864Z" fill="#4ADE80"/>
<path d="M131.864 95V73.88L171.416 47C173.464 45.464 175.299 44.056 176.92 42.776C178.541 41.4107 179.779 40.0454 180.632 38.68C181.571 37.2294 182.04 35.736 182.04 34.2C182.04 33.8587 182.04 33.3894 182.04 32.792C182.04 32.1094 182.04 31.8107 182.04 31.896C182.04 29.08 181.016 27.032 178.968 25.752C176.92 24.3867 174.317 23.704 171.16 23.704C167.32 23.704 164.504 24.6427 162.712 26.52C161.005 28.3974 160.109 30.9147 160.024 34.072H130.456C130.371 26.392 132.077 20.0774 135.576 15.128C139.16 10.0934 144.152 6.38135 150.552 3.99202C157.037 1.60269 164.504 0.40802 172.952 0.40802C178.925 0.40802 184.344 1.09069 189.208 2.45602C194.072 3.82135 198.253 5.82669 201.752 8.47202C205.336 11.1174 208.067 14.4027 209.944 18.328C211.907 22.2534 212.888 26.776 212.888 31.896C212.888 37.4427 211.779 42.2214 209.56 46.232C207.341 50.2427 204.312 53.784 200.472 56.856C196.717 59.8427 192.536 62.6587 187.928 65.304L175.128 71.704H213.656V95H131.864Z" fill="#4ADE80"/>
</svg>
